#Comment line ignore any data following # character 
#Hierarchical Translation and Rotation (.htr) file 
[Header]	
#Header keywords are followed by a single value 
FileType HTR		#Single word string
DataType HTRS		#Translation followed by rotation and scale data
FileVersion 1		#integer
NumSegments 84		#integer
NumFrames 2		#integer
DataFrameRate 30		#integer, data frame rate in this file
EulerRotationOrder ZYX
CalibrationUnits mm
RotationUnits Degrees
GlobalAxisofGravity Y
BoneLengthAxis Y
ScaleFactor 1.00
[SegmentNames&Hierarchy]
#CHILD	PARENT
MASTER GLOBAL
root MASTER
chest root
L_mid_tent01 root
R_mid_tent01 root
spine01 root
Bip01_Neck chest
L_humerus chest
R_humerus chest
weapon_bone chest
Bip01_Head Bip01_Neck
eye_left_bone Bip01_Head
eye_right_bone Bip01_Head
L_forearm L_humerus
L_front_hand L_forearm
L_weapon_bone L_forearm
L_front_hand01_01 L_front_hand
L_front_hand02_01 L_front_hand
L_front_hand03_01 L_front_hand
L_front_hand01_02 L_front_hand01_01
L_front_hand02_02 L_front_hand02_01
L_front_hand03_02 L_front_hand03_01
R_forearm R_humerus
R_front_hand R_forearm
R_weapon_bone R_forearm
R_front_hand01_01 R_front_hand
R_front_hand02_01 R_front_hand
R_front_hand03_01 R_front_hand
R_front_hand01_02 R_front_hand01_01
R_front_hand02_02 R_front_hand02_01
R_front_hand03_02 R_front_hand03_01
null_rope01_connect L_mid_tent01
Rope1_Seg01 null_rope01_connect
Rope1_Seg02 Rope1_Seg01
Rope1_Seg03 Rope1_Seg02
Rope1_Seg04 Rope1_Seg03
Rope1_Seg05 Rope1_Seg04
Rope1_Seg06 Rope1_Seg05
Rope1_Seg07 Rope1_Seg06
Rope1_Seg09 Rope1_Seg07
L_mid_hand01 Rope1_Seg09
L_mid_hand02 Rope1_Seg09
L_mid_hand03 Rope1_Seg09
null_rope02_connect R_mid_tent01
Rope2_Seg01 null_rope02_connect
Rope2_Seg02 Rope2_Seg01
Rope2_Seg03 Rope2_Seg02
Rope2_Seg04 Rope2_Seg03
Rope2_Seg05 Rope2_Seg04
Rope2_Seg06 Rope2_Seg05
Rope2_Seg07 Rope2_Seg06
Rope2_Seg09 Rope2_Seg07
R_mid_hand01 Rope2_Seg09
R_mid_hand02 Rope2_Seg09
R_mid_hand03 Rope2_Seg09
spine02 spine01
spine03 spine02
pelvis spine03
null_rope03_connect pelvis
null_rope04_connect pelvis
Rope3_Seg01 null_rope03_connect
Rope3_Seg02 Rope3_Seg01
Rope3_Seg03 Rope3_Seg02
Rope3_Seg04 Rope3_Seg03
Rope3_Seg05 Rope3_Seg04
Rope3_Seg06 Rope3_Seg05
Rope3_Seg07 Rope3_Seg06
Rope3_Seg08 Rope3_Seg07
Rope3_Seg09 Rope3_Seg08
R_rear_hand01 Rope3_Seg09
R_rear_hand02 Rope3_Seg09
R_rear_hand03 Rope3_Seg09
Rope4_Seg01 null_rope04_connect
Rope4_Seg02 Rope4_Seg01
Rope4_Seg03 Rope4_Seg02
Rope4_Seg04 Rope4_Seg03
Rope4_Seg05 Rope4_Seg04
Rope4_Seg06 Rope4_Seg05
Rope4_Seg07 Rope4_Seg06
Rope4_Seg08 Rope4_Seg07
Rope4_Seg09 Rope4_Seg08
L_rear_hand01 Rope4_Seg09
L_rear_hand02 Rope4_Seg09
L_rear_hand03 Rope4_Seg09
[BasePosition]
#SegmentName Tx, Ty, Tz, Rx, Ry, Rz, BoneLength
MASTER 0.000000 0.000000 0.000000 -90.000000 0.000000 0.000000 10.000000 
root 0.000000 0.000000 0.000000 0.000000 0.000000 0.000000 10.000000 
chest 0.000000 0.000000 0.000000 0.000000 0.000000 0.000000 10.000000 
L_mid_tent01 0.000000 0.000000 0.000000 0.000000 0.000000 0.000000 10.000000 
R_mid_tent01 0.000000 0.000000 0.000000 0.000000 0.000000 0.000000 10.000000 
spine01 0.000000 0.000000 0.000000 0.000000 0.000000 0.000000 10.000000 
Bip01_Neck 0.000000 0.000000 0.000000 0.000000 0.000000 0.000000 10.000000 
L_humerus 0.000000 0.000000 0.000000 0.000000 0.000000 0.000000 10.000000 
R_humerus 0.000000 0.000000 0.000000 0.000000 0.000000 0.000000 10.000000 
weapon_bone 0.000000 0.000000 0.000000 0.000000 0.000000 0.000000 10.000000 
Bip01_Head 0.000000 0.000000 0.000000 0.000000 0.000000 0.000000 10.000000 
eye_left_bone 0.000000 0.000000 0.000000 0.000000 0.000000 0.000000 10.000000 
eye_right_bone 0.000000 0.000000 0.000000 0.000000 0.000000 0.000000 10.000000 
L_forearm 0.000000 0.000000 0.000000 0.000000 0.000000 0.000000 10.000000 
L_front_hand 0.000000 0.000000 0.000000 0.000000 0.000000 0.000000 10.000000 
L_weapon_bone 0.000000 0.000000 0.000000 0.000000 0.000000 0.000000 10.000000 
L_front_hand01_01 0.000000 0.000000 0.000000 0.000000 0.000000 0.000000 10.000000 
L_front_hand02_01 0.000000 0.000000 0.000000 0.000000 0.000000 0.000000 10.000000 
L_front_hand03_01 0.000000 0.000000 0.000000 0.000000 0.000000 0.000000 10.000000 
L_front_hand01_02 0.000000 0.000000 0.000000 0.000000 0.000000 0.000000 10.000000 
L_front_hand02_02 0.000000 0.000000 0.000000 0.000000 0.000000 0.000000 10.000000 
L_front_hand03_02 0.000000 0.000000 0.000000 0.000000 0.000000 0.000000 10.000000 
R_forearm 0.000000 0.000000 0.000000 0.000000 0.000000 0.000000 10.000000 
R_front_hand 0.000000 0.000000 0.000000 0.000000 0.000000 0.000000 10.000000 
R_weapon_bone 0.000000 0.000000 0.000000 0.000000 0.000000 0.000000 10.000000 
R_front_hand01_01 0.000000 0.000000 0.000000 0.000000 0.000000 0.000000 10.000000 
R_front_hand02_01 0.000000 0.000000 0.000000 0.000000 0.000000 0.000000 10.000000 
R_front_hand03_01 0.000000 0.000000 0.000000 0.000000 0.000000 0.000000 10.000000 
R_front_hand01_02 0.000000 0.000000 0.000000 0.000000 0.000000 0.000000 10.000000 
R_front_hand02_02 0.000000 0.000000 0.000000 0.000000 0.000000 0.000000 10.000000 
R_front_hand03_02 0.000000 0.000000 0.000000 0.000000 0.000000 0.000000 10.000000 
null_rope01_connect 0.000000 0.000000 0.000000 0.000000 0.000000 0.000000 10.000000 
Rope1_Seg01 0.000000 0.000000 0.000000 0.000000 0.000000 0.000000 10.000000 
Rope1_Seg02 0.000000 0.000000 0.000000 0.000000 0.000000 0.000000 10.000000 
Rope1_Seg03 0.000000 0.000000 0.000000 0.000000 0.000000 0.000000 10.000000 
Rope1_Seg04 0.000000 0.000000 0.000000 0.000000 0.000000 0.000000 10.000000 
Rope1_Seg05 0.000000 0.000000 0.000000 0.000000 0.000000 0.000000 10.000000 
Rope1_Seg06 0.000000 0.000000 0.000000 0.000000 0.000000 0.000000 10.000000 
Rope1_Seg07 0.000000 0.000000 0.000000 0.000000 0.000000 0.000000 10.000000 
Rope1_Seg09 0.000000 0.000000 0.000000 0.000000 0.000000 0.000000 10.000000 
L_mid_hand01 0.000000 0.000000 0.000000 0.000000 0.000000 0.000000 10.000000 
L_mid_hand02 0.000000 0.000000 0.000000 0.000000 0.000000 0.000000 10.000000 
L_mid_hand03 0.000000 0.000000 0.000000 0.000000 0.000000 0.000000 10.000000 
null_rope02_connect 0.000000 0.000000 0.000000 0.000000 0.000000 0.000000 10.000000 
Rope2_Seg01 0.000000 0.000000 0.000000 0.000000 0.000000 0.000000 10.000000 
Rope2_Seg02 0.000000 0.000000 0.000000 0.000000 0.000000 0.000000 10.000000 
Rope2_Seg03 0.000000 0.000000 0.000000 0.000000 0.000000 0.000000 10.000000 
Rope2_Seg04 0.000000 0.000000 0.000000 0.000000 0.000000 0.000000 10.000000 
Rope2_Seg05 0.000000 0.000000 0.000000 0.000000 0.000000 0.000000 10.000000 
Rope2_Seg06 0.000000 0.000000 0.000000 0.000000 0.000000 0.000000 10.000000 
Rope2_Seg07 0.000000 0.000000 0.000000 0.000000 0.000000 0.000000 10.000000 
Rope2_Seg09 0.000000 0.000000 0.000000 0.000000 0.000000 0.000000 10.000000 
R_mid_hand01 0.000000 0.000000 0.000000 0.000000 0.000000 0.000000 10.000000 
R_mid_hand02 0.000000 0.000000 0.000000 0.000000 0.000000 0.000000 10.000000 
R_mid_hand03 0.000000 0.000000 0.000000 0.000000 0.000000 0.000000 10.000000 
spine02 0.000000 0.000000 0.000000 0.000000 0.000000 0.000000 10.000000 
spine03 0.000000 0.000000 0.000000 0.000000 0.000000 0.000000 10.000000 
pelvis 0.000000 0.000000 0.000000 0.000000 0.000000 0.000000 10.000000 
null_rope03_connect 0.000000 0.000000 0.000000 0.000000 0.000000 0.000000 10.000000 
null_rope04_connect 0.000000 0.000000 0.000000 0.000000 0.000000 0.000000 10.000000 
Rope3_Seg01 0.000000 0.000000 0.000000 0.000000 0.000000 0.000000 10.000000 
Rope3_Seg02 0.000000 0.000000 0.000000 0.000000 0.000000 0.000000 10.000000 
Rope3_Seg03 0.000000 0.000000 0.000000 0.000000 0.000000 0.000000 10.000000 
Rope3_Seg04 0.000000 0.000000 0.000000 0.000000 0.000000 0.000000 10.000000 
Rope3_Seg05 0.000000 0.000000 0.000000 0.000000 0.000000 0.000000 10.000000 
Rope3_Seg06 0.000000 0.000000 0.000000 0.000000 0.000000 0.000000 10.000000 
Rope3_Seg07 0.000000 0.000000 0.000000 0.000000 0.000000 0.000000 10.000000 
Rope3_Seg08 0.000000 0.000000 0.000000 0.000000 0.000000 0.000000 10.000000 
Rope3_Seg09 0.000000 0.000000 0.000000 0.000000 0.000000 0.000000 10.000000 
R_rear_hand01 0.000000 0.000000 0.000000 0.000000 0.000000 0.000000 10.000000 
R_rear_hand02 0.000000 0.000000 0.000000 0.000000 0.000000 0.000000 10.000000 
R_rear_hand03 0.000000 0.000000 0.000000 0.000000 0.000000 0.000000 10.000000 
Rope4_Seg01 0.000000 0.000000 0.000000 0.000000 0.000000 0.000000 10.000000 
Rope4_Seg02 0.000000 0.000000 0.000000 0.000000 0.000000 0.000000 10.000000 
Rope4_Seg03 0.000000 0.000000 0.000000 0.000000 0.000000 0.000000 10.000000 
Rope4_Seg04 0.000000 0.000000 0.000000 0.000000 0.000000 0.000000 10.000000 
Rope4_Seg05 0.000000 0.000000 0.000000 0.000000 0.000000 0.000000 10.000000 
Rope4_Seg06 0.000000 0.000000 0.000000 0.000000 0.000000 0.000000 10.000000 
Rope4_Seg07 0.000000 0.000000 0.000000 0.000000 0.000000 0.000000 10.000000 
Rope4_Seg08 0.000000 0.000000 0.000000 0.000000 0.000000 0.000000 10.000000 
Rope4_Seg09 0.000000 0.000000 0.000000 0.000000 0.000000 0.000000 10.000000 
L_rear_hand01 0.000000 0.000000 0.000000 0.000000 0.000000 0.000000 10.000000 
L_rear_hand02 0.000000 0.000000 0.000000 0.000000 0.000000 0.000000 10.000000 
L_rear_hand03 0.000000 0.000000 0.000000 0.000000 0.000000 0.000000 10.000000 
#Beginning of Data. Separated by tabs
#Fr	Tx	Ty	Tz	Rx	Ry	Rz	SF
[MASTER]
15 0.000000 0.000000 0.000000 0.001660 0.001660 0.001660 0.000000
16 0.000000 0.000000 0.000000 0.001660 0.001660 0.001660 0.000000
[root]
15 1.736684 325.807068 1703.109863 -74.659660 -25.118837 -125.441101 1733.994385
16 10.537740 342.000031 1667.684692 -71.175247 -21.333300 -132.752304 1702.423950
[chest]
15 -84.512650 -34.090519 0.000000 -2.828571 -10.265296 176.049347 91.129311
16 -84.512650 -34.090519 0.000000 -2.842208 -9.881175 176.121704 91.129311
[L_mid_tent01]
15 27.299082 22.179344 -249.918655 114.511147 21.885225 159.645035 252.381653
16 27.299080 22.179340 -249.918655 113.544960 15.150271 156.927765 252.381653
[R_mid_tent01]
15 23.228794 24.509907 226.238495 -70.796608 -55.903484 -10.110836 228.744751
16 23.228794 24.509907 226.238495 -91.387848 -49.030994 14.330502 228.744751
[spine01]
15 -0.361383 -0.195265 0.000000 0.001936 0.001327 21.150608 0.410763
16 -0.361383 -0.195265 0.000000 0.001936 0.001327 21.132160 0.410763
[Bip01_Neck]
15 165.484543 71.581718 0.000119 175.896118 1.177290 24.871183 180.302734
16 165.484543 71.581718 0.000119 175.896118 1.177290 24.871183 180.302734
[L_humerus]
15 -13.983130 -135.272980 -120.471481 -76.230644 13.927312 -2.079177 181.680161
16 -13.983130 -135.272980 -120.471481 -73.584145 13.383066 -1.408593 181.680161
[R_humerus]
15 -13.983309 -135.273102 125.287651 139.871429 -34.270798 -10.485666 184.909012
16 -13.983309 -135.273102 125.287651 140.562576 -33.555569 -11.757485 184.909012
[weapon_bone]
15 235.964890 -300.705902 0.000000 0.000000 -89.951546 -128.212341 382.234833
16 235.964890 -300.705902 0.000000 0.000000 -89.951546 -128.212341 382.234833
[Bip01_Head]
15 255.019241 83.426193 1.185950 23.294950 8.371319 -63.433109 268.320984
16 257.815094 79.756462 0.758895 30.677912 10.525640 -65.898354 269.870850
[eye_left_bone]
15 32.210999 159.034348 -75.727936 -104.218590 -85.597984 4.718000 179.064774
16 32.113239 158.976517 -75.709076 -104.218590 -85.597984 4.718000 178.987854
[eye_right_bone]
15 43.199005 159.912079 52.956257 75.788536 -85.594551 4.713911 173.903397
16 43.201904 159.913559 52.955780 75.788536 -85.594551 4.713911 173.905319
[L_forearm]
15 322.776093 0.000000 -0.000119 0.001483 0.001819 -11.635722 322.776093
16 322.776093 0.000000 -0.000119 0.001545 0.001767 -7.664914 322.776093
[L_front_hand]
15 241.149185 -0.042021 -3.300071 68.059959 5.694755 -5.165387 241.171753
16 241.149185 -0.042021 -3.300071 123.393585 9.172586 -1.628662 241.171753
[L_weapon_bone]
15 156.183838 0.000000 0.000000 0.000265 0.002332 -77.018951 156.183838
16 156.183838 0.000000 0.000000 0.000279 0.002331 -76.337952 156.183838
[L_front_hand01_01]
15 86.095154 20.947098 -0.655860 -0.313208 -0.508940 69.228859 88.609184
16 86.095154 20.947098 -0.655860 -0.306723 -0.513200 68.688881 88.609184
[L_front_hand02_01]
15 86.935165 -11.437475 24.513514 145.729446 -56.800426 -51.192154 91.046425
16 86.935165 -11.437475 24.513514 145.058716 -56.493362 -50.387756 91.046425
[L_front_hand03_01]
15 86.637497 -14.123976 -20.424902 -145.838516 55.019279 -53.038788 90.126129
16 86.637497 -14.123976 -20.424902 -145.209778 54.713604 -52.269207 90.126129
[L_front_hand01_02]
15 71.020905 -0.000179 0.000030 0.001534 0.001777 -8.378850 71.020905
16 71.020905 -0.000179 0.000030 0.001534 0.001777 -8.378851 71.020905
[L_front_hand02_02]
15 71.020927 -0.000119 0.000060 0.001534 0.001777 -8.378850 71.020927
16 71.020927 -0.000119 0.000060 0.001534 0.001777 -8.378851 71.020927
[L_front_hand03_02]
15 71.020905 -0.000060 0.000060 0.001534 0.001777 -8.378850 71.020905
16 71.020905 -0.000060 0.000060 0.001534 0.001777 -8.378851 71.020905
[R_forearm]
15 322.776428 -0.000060 0.000030 0.128953 -0.167834 -38.760876 322.776428
16 322.776428 -0.000060 0.000030 0.126512 -0.169681 -37.103073 322.776428
[R_front_hand]
15 238.847015 -0.006795 2.210259 -2.635298 -10.645461 -26.312506 238.857239
16 238.847015 -0.006795 2.210259 -2.635298 -10.645461 -26.312506 238.857239
[R_weapon_bone]
15 155.664093 0.002503 -0.000030 0.003487 0.001180 -90.988930 155.664078
16 155.664093 0.002503 -0.000030 0.003487 0.001180 -90.988930 155.664078
[R_front_hand01_01]
15 87.624611 14.231146 22.918642 -154.633484 -59.950607 61.746033 91.683487
16 87.624611 14.231146 22.918642 -154.633499 -59.950626 61.746044 91.683487
[R_front_hand02_01]
15 89.356956 14.367283 -19.491137 154.602661 58.302849 63.744389 92.579636
16 89.356956 14.367283 -19.491137 154.602661 58.302849 63.744381 92.579636
[R_front_hand03_01]
15 87.286232 -22.307278 -0.143439 0.162155 -0.423168 -75.767921 90.091743
16 87.286232 -22.307278 -0.143439 0.162155 -0.423168 -75.767921 90.091743
[R_front_hand01_02]
15 71.020905 0.000060 0.000119 0.002184 0.000861 46.953213 71.020905
16 71.020905 0.000060 0.000119 0.002262 0.000662 57.380749 71.020905
[R_front_hand02_02]
15 71.020844 -0.000030 -0.000119 0.002184 0.000861 46.953213 71.020836
16 71.020844 -0.000030 -0.000119 0.002262 0.000662 57.380749 71.020836
[R_front_hand03_02]
15 71.020905 0.000000 0.000030 0.002184 0.000861 46.953213 71.020905
16 71.020905 0.000000 0.000030 0.002262 0.000662 57.380749 71.020905
[null_rope01_connect]
15 328.732483 0.000000 -0.000238 -137.237244 35.968513 80.570740 328.732483
16 328.732483 0.000000 -0.000238 -144.132004 35.735771 63.652821 328.732483
[Rope1_Seg01]
15 -0.000030 0.000021 0.000086 73.756668 47.759411 87.280540 0.000093
16 -0.000029 0.000020 0.000081 64.970284 52.032536 77.938194 0.000089
[Rope1_Seg02]
15 139.999863 -0.000179 0.000000 -1.491729 -8.845774 5.307899 139.999863
16 139.999863 -0.000179 0.000000 -1.453779 -8.662609 3.882243 139.999863
[Rope1_Seg03]
15 139.999924 0.000060 -0.000060 -2.853255 -10.504232 6.054256 139.999924
16 139.999924 0.000060 -0.000060 -2.926572 -10.647277 4.533599 139.999924
[Rope1_Seg04]
15 139.999924 -0.000060 -0.000119 -9.409948 -17.466305 9.720813 139.999924
16 139.999924 -0.000060 -0.000119 -8.348386 -16.787983 7.057418 139.999924
[Rope1_Seg05]
15 139.999832 0.000119 -0.000060 -9.291851 -9.767507 3.461852 139.999832
16 139.999832 0.000119 -0.000060 -12.761790 -14.185303 3.722300 139.999832
[Rope1_Seg06]
15 139.999954 0.000119 -0.000060 6.774040 8.591687 -2.420473 139.999954
16 139.999954 0.000119 -0.000060 2.348895 3.721490 -1.634550 139.999954
[Rope1_Seg07]
15 139.999985 0.000060 0.000000 5.817564 13.875992 -5.558486 139.999985
16 139.999985 0.000060 0.000000 8.281698 15.879643 -4.069745 139.999985
[Rope1_Seg09]
15 121.602913 0.000119 -0.000089 65.091675 -1.360136 0.847224 121.602913
16 121.602913 0.000119 -0.000089 101.891983 -1.360900 0.845190 121.602913
[L_mid_hand01]
15 103.859421 1.038730 8.195221 105.103729 -17.962868 -5.290955 104.187431
16 103.859421 1.038730 8.195221 105.667557 -23.362820 -6.878233 104.187431
[L_mid_hand02]
15 105.572853 -4.139662 -10.864139 -138.167282 16.893654 -17.390942 106.211075
16 105.572853 -4.139662 -10.864139 -139.598343 20.582607 -21.846365 106.211075
[L_mid_hand03]
15 104.641464 17.579376 -3.913581 -17.918573 5.675238 20.907755 106.179977
16 104.641464 17.579376 -3.913581 -17.306995 7.373226 26.282709 106.179977
[null_rope02_connect]
15 328.732849 0.000179 -0.000119 -150.283646 -10.910074 -64.877457 328.732849
16 328.732849 0.000179 -0.000119 -162.785751 -7.819304 -79.310005 328.732849
[Rope2_Seg01]
15 0.000095 0.000153 0.000033 69.226143 -27.904081 -83.485718 0.000183
16 0.000095 0.000153 0.000036 90.034843 -21.491806 -114.946716 0.000183
[Rope2_Seg02]
15 139.999741 -0.000060 -0.000119 -36.807316 51.090313 27.522436 139.999756
16 139.999741 -0.000060 -0.000119 -3.334819 21.365946 14.023783 139.999756
[Rope2_Seg03]
15 140.000107 0.000030 0.000000 -34.278019 14.530872 47.902397 140.000107
16 140.000107 0.000030 0.000000 -12.335757 49.767986 63.088818 140.000107
[Rope2_Seg04]
15 139.999802 0.000000 -0.000060 -8.664009 -11.245213 28.293863 139.999802
16 139.999802 0.000000 -0.000060 -14.643444 3.769235 40.017838 139.999802
[Rope2_Seg05]
15 139.999985 -0.000060 0.000119 -0.525691 -5.554579 10.330416 139.999985
16 139.999985 -0.000060 0.000119 -2.924245 -3.901089 19.911423 139.999985
[Rope2_Seg06]
15 139.999893 -0.000030 -0.000119 0.247710 -2.612785 4.840559 139.999893
16 139.999893 -0.000030 -0.000119 -0.081907 -1.598776 7.045665 139.999893
[Rope2_Seg07]
15 139.999893 0.000060 -0.000060 0.275731 -1.514137 2.847285 139.999893
16 139.999893 0.000060 -0.000060 0.136691 -0.858910 3.770045 139.999893
[Rope2_Seg09]
15 121.338966 0.000089 -0.000060 33.793236 -1.359788 -0.847141 121.338966
16 121.338966 0.000089 -0.000060 33.793236 -1.359788 -0.847141 121.338966
[R_mid_hand01]
15 104.680779 11.144459 -10.335981 -19.077671 44.321083 66.393425 105.778534
16 104.680779 11.144459 -10.335981 -22.112436 43.126217 62.001808 105.778534
[R_mid_hand02]
15 104.070427 2.443552 8.231699 53.450706 -65.386635 34.512547 104.424065
16 104.070427 2.443552 8.231699 57.396595 -62.591122 30.126879 104.424065
[R_mid_hand03]
15 106.028137 -11.221827 -5.996406 -176.263077 15.377099 -73.446426 106.788818
16 106.028137 -11.221827 -5.996406 -175.339279 15.125996 -69.937759 106.788818
[spine02]
15 129.756927 0.001550 0.000119 0.412133 -4.039321 -13.694139 129.756927
16 129.756927 0.001550 0.000119 0.401227 -4.040509 -13.524308 129.756927
[spine03]
15 78.614044 0.081568 -4.899014 2.184614 3.673625 20.918447 78.766579
16 78.614044 0.081563 -4.899014 2.183807 3.674103 20.893270 78.766579
[pelvis]
15 169.435242 0.051022 0.000000 -0.061995 -0.179705 15.061865 169.435257
16 169.435242 0.051022 0.000000 -0.061927 -0.179728 15.018630 169.435257
[null_rope03_connect]
15 -1.257226 -2.466202 137.391083 -60.618202 -58.183651 137.037308 137.418976
16 -1.257226 -2.466202 137.391083 -59.767456 -50.612885 134.782822 137.418976
[null_rope04_connect]
15 -1.259640 -2.480268 -137.844437 -60.618202 -58.183651 137.037308 137.872513
16 -1.259640 -2.480268 -137.844437 -59.767456 -50.612885 134.782822 137.872513
[Rope3_Seg01]
15 0.000000 0.000000 0.000000 -135.129852 -25.610706 -70.167885 0.000000
16 0.000000 0.000000 0.000000 -133.978302 -27.908968 -74.149460 0.000000
[Rope3_Seg02]
15 139.999924 -0.000119 0.000060 -2.134297 2.030838 -9.064452 139.999924
16 139.999924 -0.000119 0.000060 -2.352630 14.317232 -3.654594 139.999924
[Rope3_Seg03]
15 139.999924 -0.000119 0.000119 -3.858412 3.257524 -10.110839 139.999924
16 139.999924 -0.000119 0.000119 -0.513671 13.212122 -1.053578 139.999924
[Rope3_Seg04]
15 139.999924 0.000119 0.000000 -8.277702 4.729222 -14.846014 139.999924
16 139.999924 0.000119 0.000000 0.454512 10.236894 -0.876247 139.999924
[Rope3_Seg05]
15 139.999924 -0.000238 0.000060 -75.782936 17.655073 -65.336678 139.999924
16 139.999924 -0.000238 0.000060 -0.498038 27.759441 -17.488581 139.999924
[Rope3_Seg06]
15 139.999893 -0.000119 -0.000060 -16.982433 28.671469 -3.305888 139.999893
16 139.999893 -0.000119 -0.000060 -1.344760 27.757425 -21.605928 139.999893
[Rope3_Seg07]
15 139.999771 0.000060 -0.000119 -1.811073 7.935829 1.457701 139.999771
16 139.999771 0.000060 -0.000119 0.743791 10.687533 -8.291313 139.999771
[Rope3_Seg08]
15 139.999985 -0.000060 0.000000 -0.037140 2.371012 0.515341 139.999985
16 139.999985 -0.000060 0.000000 0.757575 4.764293 -3.853375 139.999985
[Rope3_Seg09]
15 90.185997 -0.000179 -0.000060 58.822601 -1.358890 -0.849330 90.185997
16 90.185997 -0.000179 -0.000060 56.176758 -1.361833 -0.848276 90.185997
[R_rear_hand01]
15 103.366196 -6.073594 -10.757982 -173.722168 23.903248 -64.209427 104.101845
16 103.366196 -6.073594 -10.757982 -176.613388 24.447432 -71.266014 104.101845
[R_rear_hand02]
15 100.509819 12.039542 -7.992327 -19.009037 34.423069 61.661366 101.543350
16 100.509819 12.039542 -7.992327 -14.613219 36.296532 69.251999 101.543350
[R_rear_hand03]
15 101.539970 5.215704 5.435467 77.282013 -63.257511 15.261523 101.819031
16 101.539970 5.215704 5.435467 73.547066 -69.515694 19.328247 101.819031
[Rope4_Seg01]
15 -0.000015 -0.000043 -0.000153 90.233955 -38.267273 -158.614777 0.000159
16 -0.000015 -0.000041 -0.000153 105.758606 -37.305351 -171.201706 0.000159
[Rope4_Seg02]
15 139.999985 0.000060 0.000119 5.406579 -4.057760 2.158500 139.999985
16 139.999985 0.000060 0.000119 11.256184 -4.430465 4.141521 139.999985
[Rope4_Seg03]
15 139.999924 0.000000 -0.000238 11.181108 -6.650848 4.423804 139.999924
16 139.999924 0.000000 -0.000238 18.624254 -5.502326 7.726716 139.999924
[Rope4_Seg04]
15 139.999985 0.000000 0.000119 28.328194 -11.578453 13.377376 139.999985
16 139.999985 0.000000 0.000119 19.214172 -0.590118 13.669006 139.999985
[Rope4_Seg05]
15 139.999802 -0.000060 -0.000119 33.786221 -7.135155 36.434128 139.999802
16 139.999802 -0.000060 -0.000119 20.223387 0.192131 22.075125 139.999802
[Rope4_Seg06]
15 139.999924 0.000000 0.000060 15.704841 2.161400 39.435329 139.999924
16 139.999924 0.000000 0.000060 20.648651 -1.347624 48.627842 139.999924
[Rope4_Seg07]
15 139.999802 0.000000 0.000000 2.346558 5.476727 19.234528 139.999802
16 139.999802 0.000000 0.000000 2.469441 7.967649 21.692198 139.999802
[Rope4_Seg08]
15 139.999924 0.000000 0.000119 -1.698731 2.812317 7.049616 139.999924
16 139.999924 0.000000 0.000119 -2.009490 3.079507 7.052887 139.999924
[Rope4_Seg09]
15 90.185791 0.000060 0.000060 -163.753143 2.229289 0.851216 90.185791
16 90.185791 0.000060 0.000060 -166.276260 2.229681 0.851028 90.185791
[L_rear_hand01]
15 101.696655 -8.392275 -7.654577 -14.087914 -36.478233 109.867661 102.329041
16 101.696655 -8.392275 -7.654577 -15.472530 -35.978535 112.209923 102.329041
[L_rear_hand02]
15 102.726799 -1.568258 5.773216 72.968384 70.215233 160.058731 102.900848
16 102.726799 -1.568258 5.773216 74.426735 68.349998 161.612610 102.900848
[L_rear_hand03]
15 104.552910 9.721220 -10.420293 -176.947357 -24.490156 -107.928688 105.519653
16 104.552910 9.721220 -10.420293 -176.063492 -24.371090 -110.065880 105.519653
